<svg width="227" height="55" viewBox="0 0 227 55" fill="none" xmlns="http://www.w3.org/2000/svg">
    <path d="M223.861 53.8321C224.274 53.8114 224.593 53.4593 224.572 53.0456L224.236 46.304C224.215 45.8903 223.863 45.5717 223.449 45.5923C223.036 45.613 222.717 45.9651 222.738 46.3788L223.037 52.3713L217.044 52.6705C216.631 52.6911 216.312 53.0432 216.333 53.4569C216.353 53.8706 216.705 54.1892 217.119 54.1686L223.861 53.8321ZM0.600764 43.4277C1.07043 44.0124 1.07056 44.0123 1.07113 44.0119C1.07189 44.0112 1.07289 44.0105 1.0744 44.0092C1.07744 44.0068 1.08219 44.003 1.08864 43.9979C1.10154 43.9876 1.12125 43.9719 1.14772 43.951C1.20066 43.9092 1.28062 43.8464 1.38717 43.7636C1.60027 43.5982 1.91971 43.353 2.342 43.0367C3.1866 42.404 4.4425 41.4869 6.08173 40.3539C9.36037 38.0877 14.1715 34.9582 20.2915 31.5134C32.5335 24.6225 50.0007 16.4762 70.9057 11.4471C112.687 1.39586 168.226 3.78366 223.32 53.6391L224.327 52.5269C168.803 2.28255 112.73 -0.157309 70.5548 9.98873C49.4814 15.0583 31.8838 23.2669 19.5557 30.2062C13.3906 33.6765 8.54036 36.831 5.22884 39.1199C3.57299 40.2645 2.30163 41.1928 1.44274 41.8361C1.01328 42.1578 0.686921 42.4083 0.467155 42.5789C0.357271 42.6643 0.274034 42.7296 0.21788 42.774C0.189802 42.7962 0.168496 42.8131 0.154015 42.8246C0.146774 42.8304 0.141239 42.8348 0.137418 42.8379C0.135508 42.8394 0.133928 42.8407 0.132972 42.8414C0.131822 42.8424 0.1311 42.843 0.600764 43.4277Z" fill="#828282"/>
</svg>
