<svg width="50" height="50" viewBox="0 0 50 50" fill="none" xmlns="http://www.w3.org/2000/svg">
    <path d="M30 24.9994C31.6833 24.9994 33.0658 23.7403 33.2875 22.1161L36.3333 19.8329C36.7016 19.557 36.7766 19.0345 36.5 18.6662C36.2241 18.2978 35.7016 18.222 35.3333 18.4995L33.2092 20.0928C32.8917 19.077 31.9533 18.3329 30.8334 18.3329H27.5001C26.1218 18.3329 25.0001 19.4545 25.0001 20.8329C25.0001 19.4545 23.8785 18.3329 22.5001 18.3329H19.1667C18.0466 18.3329 17.1084 19.077 16.7908 20.0928L14.6667 18.4995C14.2992 18.2236 13.7759 18.2986 13.5 18.6662C13.2233 19.0345 13.2983 19.557 13.6667 19.8329L16.7125 22.1161C16.9341 23.7403 18.3158 24.9994 20 24.9994H21.6666C23.505 24.9994 24.9999 23.5044 24.9999 21.6661C24.9999 23.5045 26.4949 24.9994 28.3332 24.9994H30ZM23.3333 21.6661C23.3333 22.5853 22.585 23.3328 21.6666 23.3328H20C19.0816 23.3328 18.3333 22.5854 18.3333 21.6661V20.8329C18.3333 20.3737 18.7066 19.9996 19.1666 19.9996H22.4998C22.9598 19.9996 23.3331 20.3737 23.3331 20.8329V21.6661H23.3333ZM26.6666 21.6661V20.8329C26.6666 20.3737 27.04 19.9996 27.4999 19.9996H30.8332C31.2932 19.9996 31.6665 20.3737 31.6665 20.8329V21.6661C31.6665 22.5853 30.9182 23.3328 29.9998 23.3328H28.3331C27.415 23.3327 26.6666 22.5853 26.6666 21.6661Z" fill="#03973D"/>
    <path d="M49.9751 48.9635L49.1235 45.5694C48.6959 44.2844 46.166 40.151 31.6669 40.0385V39.1661C31.6669 38.7061 31.2945 38.3328 30.8336 38.3328C30.3728 38.3328 30.0003 38.7061 30.0003 39.1661V40.8328C30.0003 40.8386 30.0036 40.8436 30.0036 40.8495C30.0036 40.8544 30.0003 40.8586 30.0003 40.8645C29.997 41.3728 29.8295 45.8328 25.0003 45.8328C20.1712 45.8328 20.0037 41.342 20.0004 40.8328V39.1662C20.0004 38.7062 19.6279 38.3329 19.1671 38.3329C18.7062 38.3329 18.3338 38.7062 18.3338 39.1662V40.0079C7.53528 40.0927 2.12779 41.816 0.858655 45.6302L0.0253578 48.9635C-0.0871417 49.4102 0.185318 49.8626 0.631996 49.9743C1.07701 50.0877 1.53033 49.8143 1.64195 49.3685L2.45699 46.096C3.42534 43.1918 8.64026 41.741 18.3886 41.6685C18.6911 44.0543 20.3127 47.4993 25.0001 47.4993C29.6851 47.4993 31.3076 44.0752 31.6117 41.7019C43.0334 41.7861 47.0041 44.4819 47.525 46.0352L48.3583 49.3685C48.4534 49.7468 48.7925 49.9993 49.1659 49.9993C49.2326 49.9993 49.3008 49.9918 49.3684 49.9743C49.8151 49.8626 50.0867 49.4102 49.9751 48.9635Z" fill="#03973D"/>
    <path d="M5.72602 4.15953L24.8926 6.65951C24.9285 6.66371 24.9643 6.66616 25.0002 6.66616C25.036 6.66616 25.0718 6.66362 25.1077 6.65951L43.3334 4.28208V7.17543C42.8109 7.76293 41.6667 9.22874 41.6667 10.8329C41.6667 12.6671 43.1617 13.3329 44.1667 13.3329C45.1716 13.3329 46.6666 12.6671 46.6666 10.8329C46.6666 9.22874 45.5225 7.76293 45 7.17543V3.33287C45 3.22291 44.9766 3.11871 44.9375 3.02203C44.9233 2.98785 44.8991 2.96119 44.8808 2.92955C44.8483 2.87125 44.8158 2.81373 44.7709 2.76539C44.7417 2.73453 44.7067 2.71373 44.6734 2.68873C44.6259 2.65035 44.5793 2.61373 44.5243 2.58707C44.4835 2.56705 44.4401 2.55875 44.396 2.54625C44.3551 2.53375 44.3184 2.51207 44.2743 2.50621L25.1077 0.00622556C25.036 -0.00207519 24.9643 -0.00207519 24.8926 0.00622556L5.72602 2.50621C5.31099 2.56041 5.00024 2.91451 5.00024 3.33287C5.00024 3.75123 5.31108 4.10543 5.72602 4.15953ZM45.0001 10.8328C45.0001 11.4979 44.5492 11.6536 44.1668 11.6661C43.7842 11.6536 43.3335 11.4978 43.3335 10.8328C43.3335 10.1411 43.7585 9.36946 44.1668 8.80032C44.5751 9.36956 45.0001 10.1412 45.0001 10.8328ZM25.0002 1.67292L37.7242 3.33287L25.0002 4.99292L12.276 3.33287L25.0002 1.67292Z" fill="#03973D"/>
    <path d="M26.921 30.2344C26.8943 30.2586 26.266 30.8328 25.0002 30.8328C23.7527 30.8328 23.1243 30.2753 23.081 30.2353C22.7569 29.9178 22.2344 29.9203 21.911 30.2436C21.5852 30.5695 21.5852 31.0962 21.911 31.4219C22.021 31.5319 23.0443 32.4995 25.0002 32.4995C26.956 32.4995 27.9794 31.532 28.0893 31.4219C28.411 31.1003 28.4101 30.5853 28.0943 30.2586C27.7768 29.932 27.2535 29.9228 26.921 30.2344Z" fill="#03973D"/>
    <path d="M11.6668 16.8087C10.6968 17.1528 10.0001 18.0795 10.0001 19.1662V22.4995C10.0001 23.662 10.7976 24.6419 11.8751 24.9203C12.3209 26.2353 13.5526 29.8011 14.2551 31.2052C15.5784 33.8526 19.3309 38.3327 25.0001 38.3327C30.6692 38.3327 34.4217 33.8527 35.745 31.2052C36.4476 29.801 37.6792 26.2352 38.125 24.9203C39.2025 24.6419 40 23.662 40 22.4995V19.1662C40 18.0796 39.3033 17.1528 38.3333 16.8087V15.8329C38.3333 15.3729 37.9608 14.9996 37.5 14.9996C37.0392 14.9996 36.6667 15.3729 36.6667 15.8329V17.4996C36.6667 17.9596 37.0392 18.3329 37.5 18.3329C37.96 18.3329 38.3333 18.707 38.3333 19.1662V22.4995C38.3333 22.9587 37.96 23.3328 37.5 23.3328C37.1408 23.3328 36.8225 23.562 36.71 23.9028C36.6925 23.9519 35.0517 28.8653 34.255 30.4603C34.1274 30.7136 31.0817 36.6661 25.0001 36.6661C18.9184 36.6661 15.8726 30.7136 15.7451 30.4603C14.9477 28.8653 13.3076 23.952 13.2901 23.9028C13.1768 23.562 12.8593 23.3328 12.5001 23.3328C12.0402 23.3328 11.6668 22.9587 11.6668 22.4995V19.1662C11.6668 18.707 12.0402 18.3329 12.5001 18.3329C12.9609 18.3329 13.3334 17.9596 13.3334 17.4996V15.8328C13.3334 15.3729 12.9609 14.9995 12.5001 14.9995C12.0393 14.9995 11.6668 15.3729 11.6668 15.8328V16.8087Z" fill="#03973D"/>
    <path d="M12.5002 5.83289C12.0393 5.83289 11.6669 6.20622 11.6669 6.66618V12.4995C11.6669 12.8153 11.8452 13.1037 12.1277 13.2453C12.3393 13.3502 17.391 15.8327 25.0001 15.8327C32.6093 15.8327 37.6609 13.3502 37.8725 13.2453C38.155 13.1036 38.3333 12.8153 38.3333 12.4995V6.66628C38.3333 6.20632 37.9609 5.83298 37.5 5.83298C37.0392 5.83298 36.6668 6.20632 36.6668 6.66628V11.9604C35.2884 12.5446 30.9267 14.1662 25.0001 14.1662C19.0735 14.1662 14.7118 12.5446 13.3335 11.9604V6.66628C13.3335 6.20622 12.961 5.83289 12.5002 5.83289Z" fill="#03973D"/>
</svg>
