<svg width="50" height="50" viewBox="0 0 50 50" fill="none" xmlns="http://www.w3.org/2000/svg">
    <path d="M32.4998 45H29.9998V40.8333C29.9998 40.3733 29.6265 40 29.1665 40C28.7066 40 28.3332 40.3733 28.3332 40.8333V45.8333C28.3332 46.2933 28.7066 46.6666 29.1665 46.6666H32.4998C33.4357 46.6666 34.4123 47.4282 34.8123 48.3333H15.1873C15.5873 47.4283 16.564 46.6666 17.4998 46.6666H25.8331C26.2931 46.6666 26.6664 46.2933 26.6664 45.8333C26.6664 45.3733 26.2931 45 25.8331 45H21.6664V40.8333C21.6664 40.3733 21.2931 40 20.8331 40C20.3732 40 19.9998 40.3733 19.9998 40.8333V45H17.4998C15.3581 45 13.3331 47.025 13.3331 49.1667C13.3331 49.6267 13.7065 50 14.1664 50H35.8331C36.2931 50 36.6664 49.6267 36.6664 49.1667C36.6665 47.025 34.6415 45 32.4998 45Z" fill="#03973D"/>
    <path d="M37.5557 26.5925C37.6674 26.6433 37.7841 26.6666 37.8991 26.6666C38.2158 26.6666 38.5191 26.4849 38.6591 26.1774C39.5482 24.2124 39.9999 22.1341 39.9999 19.9999C39.9999 11.7291 33.2707 4.99988 24.9999 4.99988C16.7291 4.99988 9.99988 11.7291 9.99988 19.9999C9.99988 22.1341 10.4515 24.2124 11.3407 26.1774C11.5315 26.5966 12.0257 26.7824 12.444 26.5925C12.8632 26.4024 13.049 25.9083 12.8598 25.4891C12.0674 23.7417 11.6665 21.895 11.6665 20C11.6665 12.6483 17.6481 6.66667 24.9998 6.66667C32.3514 6.66667 38.3332 12.6483 38.3332 20C38.3332 21.895 37.9324 23.7417 37.1398 25.4891C36.9508 25.9083 37.1365 26.4025 37.5557 26.5925Z" fill="#03973D"/>
    <path d="M45.8333 0H4.1667C2.025 0 0 2.025 0 4.1667V25.8334C0 26.2934 0.37334 26.6667 0.833301 26.6667C1.29326 26.6667 1.6666 26.2934 1.6666 25.8334V4.1667C1.6666 2.95166 2.95156 1.6667 4.1666 1.6667H45.8333C47.0483 1.6667 48.3333 2.95166 48.3333 4.1667V34.1667C48.3333 35.3817 47.0483 36.6667 45.8333 36.6667H4.1667C2.95166 36.6667 1.6667 35.3817 1.6667 34.1667V30H45.8334C46.2934 30 46.6667 29.6267 46.6667 29.1667C46.6667 28.7067 46.2934 28.3334 45.8334 28.3334H0.833301C0.37334 28.3334 0 28.7067 0 29.1667V34.1667C0 36.3084 2.025 38.3334 4.1667 38.3334H45.8334C47.9751 38.3334 50.0001 36.3084 50.0001 34.1667V4.1667C50 2.025 47.975 0 45.8333 0Z" fill="#03973D"/>
    <path d="M33.6698 26.5349C33.809 26.6241 33.9649 26.6666 34.1182 26.6666C34.3932 26.6666 34.6615 26.5307 34.8207 26.2833C36.0282 24.3991 36.6665 22.2266 36.6665 20C36.6665 13.5667 31.4332 8.33325 24.9998 8.33325C18.5664 8.33325 13.3331 13.5667 13.3331 20C13.3331 22.2266 13.9715 24.3991 15.1789 26.2833C15.4264 26.6699 15.9414 26.7841 16.3298 26.5349C16.7173 26.2866 16.8306 25.7708 16.5815 25.3832C15.5473 23.7682 14.9998 21.9074 14.9998 20C14.9998 14.4858 19.4857 9.99995 24.9998 9.99995C30.514 9.99995 34.9998 14.4858 34.9998 20C34.9998 21.9075 34.4524 23.7683 33.4182 25.3832C33.169 25.7708 33.2823 26.2866 33.6698 26.5349Z" fill="#03973D"/>
    <path d="M23.3334 33.3332C23.3334 34.2523 24.0808 34.9999 25.0001 34.9999C25.9192 34.9999 26.6668 34.2524 26.6668 33.3332C26.6668 32.4141 25.9193 31.6665 25.0001 31.6665C24.0809 31.6666 23.3334 32.4141 23.3334 33.3332Z" fill="#03973D"/>
    <path d="M25 15.8334C25.9192 15.8334 26.6667 16.5808 26.6667 17.5001C26.6667 17.96 27.0401 18.3334 27.5 18.3334C27.96 18.3334 28.3333 17.96 28.3333 17.5001C28.3333 15.9517 27.2666 14.6576 25.8333 14.285V14.1667C25.8333 13.7067 25.46 13.3334 25 13.3334C24.5401 13.3334 24.1667 13.7067 24.1667 14.1667V14.285C22.7334 14.6575 21.6667 15.9517 21.6667 17.5001C21.6667 19.3385 23.1618 20.8334 25 20.8334C25.9192 20.8334 26.6667 21.5808 26.6667 22.5001C26.6667 23.4192 25.9193 24.1668 25 24.1668C24.0809 24.1668 23.3333 23.4193 23.3333 22.5001C23.3333 22.0401 22.96 21.6668 22.5 21.6668C22.0401 21.6668 21.6667 22.0401 21.6667 22.5001C21.6667 24.0484 22.7334 25.3426 24.1667 25.7151V25.8335C24.1667 26.2934 24.5401 26.6668 25 26.6668C25.46 26.6668 25.8333 26.2934 25.8333 25.8335V25.7151C27.2666 25.3427 28.3333 24.0484 28.3333 22.5001C28.3333 20.6617 26.8383 19.1668 25 19.1668C24.0809 19.1668 23.3333 18.4193 23.3333 17.5001C23.3333 16.5808 24.0809 15.8334 25 15.8334Z" fill="#03973D"/>
</svg>
