<svg width="50" height="50" viewBox="0 0 50 50" fill="none" xmlns="http://www.w3.org/2000/svg">
    <path d="M5.83318 31.6666C5.37322 31.6666 4.99988 32.04 4.99988 32.4999V44.1666C4.99988 44.6266 5.37322 44.9999 5.83318 44.9999H10.8332C11.2931 44.9999 11.6665 44.6266 11.6665 44.1666V32.4999C11.6665 32.04 11.2931 31.6666 10.8332 31.6666C10.3732 31.6666 9.99988 32.04 9.99988 32.4999V43.3332H6.66658V32.4999C6.66658 32.04 6.29324 31.6666 5.83318 31.6666Z" fill="#03973D"/>
    <path d="M35.8332 38.3334C35.3723 38.3334 34.9999 38.7067 34.9999 39.1667C34.9999 39.6266 35.3723 40 35.8332 40H42.4999C42.9607 40 43.3332 39.6266 43.3332 39.1667C43.3332 38.7067 42.9607 38.3334 42.4999 38.3334H35.8332Z" fill="#03973D"/>
    <path d="M50 29.1667V4.1667C50 1.86914 48.1309 0 45.8333 0H4.1667C1.86914 0 0 1.86914 0 4.1667V25.8334C0 26.2934 0.37334 26.6667 0.833301 26.6667C1.29326 26.6667 1.6666 26.2934 1.6666 25.8334V4.1667C1.6666 2.78838 2.78828 1.6667 4.1666 1.6667H45.8333C47.2116 1.6667 48.3333 2.78838 48.3333 4.1667V28.3334H0.833301C0.37334 28.3334 0 28.7067 0 29.1667V45.8334C0 48.1309 1.86914 50 4.1667 50H45.8334C48.1309 50 50 48.1309 50 45.8333V32.5C50 32.04 49.6275 31.6667 49.1667 31.6667C48.7059 31.6667 48.3334 32.04 48.3334 32.5V45.8333C48.3334 47.2116 47.2117 48.3333 45.8334 48.3333H4.1667C2.78838 48.3333 1.6667 47.2116 1.6667 45.8333V30H49.1667C49.6275 30 50 29.6267 50 29.1667Z" fill="#03973D"/>
    <path d="M14.1668 31.6666C13.7068 31.6666 13.3335 32.04 13.3335 32.4999V37.4999C13.3335 37.9599 13.7068 38.3332 14.1668 38.3332H19.1668C19.6268 38.3332 20.0001 37.9599 20.0001 37.4999V32.4999C20.0001 32.04 19.6268 31.6666 19.1668 31.6666C18.7068 31.6666 18.3335 32.04 18.3335 32.4999V36.6666H15.0001V32.4999C15.0001 32.04 14.6268 31.6666 14.1668 31.6666Z" fill="#03973D"/>
    <path d="M44.1668 26.6667C44.6276 26.6667 45.0001 26.2934 45.0001 25.8334V5.83342C45.0001 5.37346 44.6276 5.00012 44.1668 5.00012H39.1668C38.706 5.00012 38.3335 5.37346 38.3335 5.83342V25.8334C38.3335 26.2934 38.706 26.6667 39.1668 26.6667C39.6276 26.6667 40.0001 26.2934 40.0001 25.8334V6.66672H43.3334V25.8334C43.3334 26.2934 43.706 26.6667 44.1668 26.6667Z" fill="#03973D"/>
    <path d="M35.8332 26.6666C36.2941 26.6666 36.6665 26.2933 36.6665 25.8333V12.4999C36.6665 12.04 36.2941 11.6666 35.8332 11.6666H30.8332C30.3724 11.6666 29.9999 12.04 29.9999 12.4999V25.8332C29.9999 26.2932 30.3724 26.6665 30.8332 26.6665C31.2941 26.6665 31.6665 26.2932 31.6665 25.8332V13.3332H34.9999V25.8332C34.9999 26.2933 35.3724 26.6666 35.8332 26.6666Z" fill="#03973D"/>
    <path d="M10.8331 6.66663C10.3731 6.66663 9.9998 7.03997 9.9998 7.49993V9.99993H7.49981C7.03984 9.99993 6.6665 10.3733 6.6665 10.8332C6.6665 11.2932 7.03984 11.6665 7.49981 11.6665H9.9998V14.1665C9.9998 14.6265 10.3731 14.9998 10.8331 14.9998C11.2931 14.9998 11.6664 14.6265 11.6664 14.1665V11.6665H14.1664C14.6264 11.6665 14.9997 11.2932 14.9997 10.8332C14.9997 10.3733 14.6264 9.99993 14.1664 9.99993H11.6664V7.49993C11.6665 7.03997 11.2932 6.66663 10.8331 6.66663Z" fill="#03973D"/>
    <path d="M27.5 26.6668C27.9609 26.6668 28.3333 26.2935 28.3333 25.8335V19.1668C28.3333 18.7068 27.9609 18.3335 27.5 18.3335H22.5C22.0401 18.3335 21.6667 18.7068 21.6667 19.1668V25.8335C21.6667 26.2935 22.0401 26.6668 22.5 26.6668C22.96 26.6668 23.3333 26.2935 23.3333 25.8335V20.0001H26.6667V25.8334C26.6667 26.2935 27.0392 26.6668 27.5 26.6668Z" fill="#03973D"/>
</svg>
