<svg width="50" height="50" viewBox="0 0 50 50" fill="none" xmlns="http://www.w3.org/2000/svg">
    <path d="M42.669 7.28643C37.9731 2.61257 31.6153 -0.00782773 24.9901 1.75654e-05C18.3649 0.00786286 12.0133 2.64331 7.32849 7.32828C2.64368 12.0132 0.0081544 18.3652 1.88889e-05 24.9909C-0.00811662 31.6166 2.6118 37.975 7.2851 42.6715C10.0683 45.4634 13.4754 47.5536 17.2253 48.7696C17.3262 48.052 17.3899 47.2816 17.4334 46.5034C17.4443 46.4351 17.4039 46.3123 17.4505 46.2844V46.0234C17.4644 45.9287 17.4256 45.7718 17.4753 45.7128V45.2934C17.4877 44.9827 17.4443 44.6224 17.4986 44.3521V44.3304C17.4443 44.0523 17.4877 43.6811 17.4753 43.3673V42.9821C17.4256 42.9169 17.4644 42.7538 17.4505 42.6544V42.4136C17.4039 42.3841 17.4505 42.2583 17.4334 42.1931V42.0626C18.3808 42.2987 19.3841 42.4711 20.3005 42.7398C19.8097 42.861 19.6948 43.344 19.6404 43.8986C19.6295 43.9716 19.673 44.0881 19.6218 44.1176C19.6559 46.2114 20.1203 47.8811 20.5304 49.5975C26.3144 50.6484 32.2837 49.626 37.3883 46.71C37.4036 46.6953 37.4182 46.6797 37.4318 46.6634C37.4577 46.5182 37.4717 46.3712 37.4737 46.2238C37.5258 45.7736 37.5554 45.321 37.5622 44.8678V44.45C37.5187 43.1468 37.2392 41.7628 36.051 41.6323C35.2294 41.5345 34.6532 41.9259 34.0319 42.1542C35.3707 40.6274 36.402 38.7868 36.5294 36.0483V35.2562C36.2933 31.9182 34.9374 29.697 33.4883 27.5752C33.3515 27.43 33.2264 27.2742 33.114 27.1093C32.9848 26.9597 32.8689 26.7991 32.7676 26.6293V26.5843H32.923C33.6685 26.3466 34.0008 25.6958 34.2602 24.9658C34.3772 24.4906 34.4572 24.0072 34.4994 23.5197C34.5134 23.4187 34.4683 23.2603 34.5243 23.1919V23.1469C34.4683 23.0894 34.5134 22.9356 34.4994 22.8362C34.4761 22.6467 34.4419 22.4712 34.4109 22.291C34.3714 22.2142 34.3417 22.1328 34.3223 22.0487V22.027C34.19 21.7617 34.029 21.5117 33.8424 21.2814C33.6296 21.0236 33.3439 20.7781 33.2724 20.4752C33.1171 19.127 33.4899 17.9481 33.8642 16.9928C33.9136 16.8468 33.9809 16.7075 34.0645 16.5781C34.0645 16.4756 34.122 16.4352 34.1484 16.3575C34.1808 16.2497 34.2245 16.1455 34.2789 16.0469C34.3392 15.8252 34.3833 15.5993 34.4109 15.3712V14.8788C34.2944 13.5508 34.0008 12.3936 33.7539 11.2007C33.7182 11.1416 33.7213 11.0453 33.6887 10.9817V10.9584C32.8065 8.0553 31.4226 5.65239 28.8537 4.43462C28.8382 4.43462 28.8257 4.43462 28.8304 4.40977C28.5617 4.33211 28.3318 4.2094 28.0414 4.14727C28.0274 4.14727 28.015 4.14727 28.0212 4.12863C27.8659 4.12863 27.7976 4.2094 27.6686 4.23736C27.65 4.28396 27.5708 4.26998 27.5335 4.30104H27.473C27.4077 4.56976 27.3176 4.8478 27.4077 5.1336C27.5047 5.37825 27.6376 5.60704 27.8022 5.81238C28.8245 7.28884 29.7321 8.84148 30.5171 10.4567C30.583 10.5769 30.6406 10.7014 30.6895 10.8294C30.7656 10.9087 30.7843 11.0453 30.8448 11.1401C30.8744 11.2271 30.9303 11.2954 30.952 11.3824C31.0079 11.4414 31.0188 11.5377 31.0638 11.603C31.7301 13.0708 32.4617 14.4781 32.5719 16.5051C32.6108 16.7072 32.6108 16.9149 32.5719 17.1171C32.576 17.3772 32.5383 17.6363 32.4601 17.8844C32.4523 17.9708 32.4235 18.054 32.3763 18.1267C32.3763 18.2106 32.3281 18.2416 32.3095 18.3022C32.228 18.496 32.1081 18.6711 31.957 18.8172C31.8059 18.9632 31.6268 19.0771 31.4304 19.1519C31.3567 19.1918 31.2749 19.2147 31.1912 19.2187C30.9427 19.259 30.5917 18.9686 30.3587 18.8707C30.2748 18.8707 30.25 18.8226 30.1863 18.8055C30.0776 18.774 29.9733 18.7292 29.8757 18.6719C29.565 18.5787 29.2777 18.4777 28.978 18.3877C28.8419 18.369 28.7088 18.333 28.5819 18.2805C27.9907 18.157 27.3928 18.0688 26.7911 18.0164C26.7166 18.0009 26.5846 18.0428 26.5488 17.9947H25.4135C25.3793 18.0428 25.2582 17.9947 25.1929 18.0164C24.2271 18.0783 23.2675 18.2149 22.3227 18.4249C22.2189 18.4666 22.1104 18.4958 21.9996 18.5119C21.8133 18.5616 21.6455 18.63 21.4498 18.6672C21.3081 18.7318 21.1611 18.7838 21.0103 18.8226C20.9289 18.866 20.8406 18.8949 20.7494 18.908C20.4745 19.0478 20.1762 19.1534 19.8936 19.2839C19.8687 19.2839 19.8656 19.3118 19.8299 19.3056C17.6974 20.3712 16.0852 21.9462 15.1037 24.1658C15.063 24.3085 15.011 24.4477 14.9483 24.5821C14.9224 24.689 14.886 24.793 14.8396 24.8927C14.8055 25.0791 14.7495 25.2376 14.7076 25.4162V25.483C14.1 25.828 13.5241 26.2261 12.9867 26.6728C12.7895 26.8421 12.5953 27.0254 12.395 27.1962C12.2396 27.3749 12.0672 27.538 11.8917 27.7011C11.5283 28.1329 10.9847 28.692 10.6741 29.3025C10.5545 29.5324 10.3246 30.09 10.7362 30.1117H10.98C11.3196 30.0455 11.663 30.0004 12.0082 29.9766H12.3825C12.4571 29.9952 12.5829 29.9518 12.6202 30.003C13.474 30.0538 14.3156 30.2308 15.1176 30.528C15.5292 30.6833 15.9206 30.8977 16.4937 30.8542C16.0806 30.9785 15.6597 30.9396 15.2714 30.9862C14.077 31.1416 13.2803 31.7629 12.5549 32.3438C12.4077 32.507 12.2522 32.6625 12.089 32.8098C11.9337 33.0536 11.71 33.1204 11.7395 33.4652C11.769 33.8101 12.1635 34.012 12.4819 34.1642C13.3129 34.5681 14.3364 34.7855 15.304 34.9517C15.5206 34.9999 15.7409 35.0295 15.9626 35.0403C16.1241 35.0139 16.2838 34.9775 16.4409 34.9315C16.9457 34.8352 17.6834 34.7855 17.8652 35.1909C18.0469 35.5963 17.744 36.1229 17.6011 36.373C17.4582 36.623 17.4163 36.6945 17.4955 36.9663C17.6275 37.4416 17.9288 37.7927 18.2131 38.1717C18.356 38.29 18.4885 38.4205 18.6091 38.5615C19.8314 39.6115 21.324 40.382 22.9207 41.0374C24.3594 41.6314 25.828 42.1498 27.3207 42.5907C27.5457 42.6331 27.7659 42.6981 27.9777 42.7849C27.5647 42.9007 27.1378 42.9598 26.7088 42.9604C26.6653 43.0132 26.5255 42.9697 26.4448 42.9852H25.9182C25.8235 42.9697 25.6728 43.0132 25.6076 42.9604C23.9735 42.8658 22.3528 42.6088 20.7696 42.1931C19.5053 41.8747 18.1944 41.4848 16.9861 41.0747C16.8157 40.9989 16.6409 40.9336 16.4627 40.879C16.2754 40.9014 16.0914 40.9457 15.9144 41.011C15.3364 41.1759 14.7411 41.2723 14.1407 41.2984C13.9533 41.3326 13.7612 41.3326 13.5738 41.2984C11.7193 41.1928 10.6803 40.2763 10.4007 38.6081C10.1409 38.7101 9.86793 38.775 9.58997 38.8007C8.05391 38.8302 7.92344 36.6992 8.4717 35.5622C8.62702 35.222 8.90814 35.0185 9.12869 34.7762C9.56823 34.2838 9.73907 33.4435 9.32594 32.6296C9.20013 32.3811 8.92522 32.2288 8.75748 31.8871C8.49345 31.3481 8.64255 30.789 8.8662 30.3339C9.09263 29.9127 9.34256 29.5045 9.61482 29.1114C10.1196 28.2866 10.9164 27.6125 11.4273 26.985C11.4917 26.9033 11.5658 26.8298 11.6479 26.766C11.679 26.7023 11.7457 26.6775 11.7768 26.6107C11.8418 26.5301 11.9152 26.4567 11.9958 26.3917C12.0486 26.3047 12.1418 26.2596 12.1946 26.1758C12.2614 25.9397 12.7398 25.7641 12.7848 25.497C12.7848 25.4535 12.7848 25.4115 12.7848 25.3649V25.1195C12.8003 25.0527 12.7568 24.9316 12.8081 24.9036C12.8195 24.6465 12.8784 24.3937 12.9821 24.1581C13.653 22.4759 14.9732 21.4352 16.3291 20.4302C15.3921 19.3283 14.605 18.1072 13.9885 16.7987V16.7769C13.9159 16.668 13.857 16.5507 13.813 16.4274C13.5609 15.8959 13.348 15.3467 13.1762 14.7841C13.1317 14.7025 13.1023 14.6136 13.0892 14.5216C12.7487 13.4437 12.558 12.3242 12.5223 11.1945V10.438C12.5223 10.3681 12.5068 10.2827 12.5425 10.2392C12.5565 10.1507 12.5146 10.0062 12.5658 9.95339V9.93165C12.6401 8.89912 12.8835 7.88582 13.2865 6.93228C13.3823 6.63693 13.5072 6.35181 13.6592 6.08109C13.6685 6.07022 13.6732 6.04381 13.6841 6.03449C14.192 5.52347 15.1006 4.97827 15.8942 5.51259C16.545 5.95372 16.8603 6.7956 17.1196 7.7229C17.3571 8.66069 17.5468 9.60992 17.6881 10.5669C17.8719 11.4872 18.1423 12.3879 18.4957 13.2572C18.5465 13.322 18.5835 13.3966 18.6045 13.4762V13.4995C18.7427 13.7247 18.8514 13.9826 18.9772 14.2187V14.2373C19.0473 14.3266 19.1062 14.4242 19.1527 14.5278V14.5573C19.6274 15.3286 20.2095 16.0283 20.8814 16.6356C21.0755 16.7987 21.3737 17.1124 21.6051 17.159C21.8785 17.2196 22.1565 17.114 22.4143 17.159H23.0698C23.1863 17.1078 23.399 17.1497 23.5528 17.1388H23.924C24.0187 17.0876 24.2082 17.1388 24.3402 17.114H24.6027C24.6695 17.0627 24.8295 17.114 24.9304 17.0922H25.1292C25.1774 17.0441 25.3249 17.0922 25.415 17.0751H25.5874C25.6325 17.0223 25.7707 17.0627 25.8515 17.0518C27.3409 16.9447 28.8661 16.8701 30.076 16.4802C30.1955 16.4155 30.3057 16.3351 30.4037 16.241V15.8465C30.3556 15.7937 30.4037 15.6508 30.382 15.5607C30.2612 13.9615 29.922 12.3864 29.374 10.8791C29.3259 10.803 29.3041 10.699 29.2622 10.6151V10.5949C29.2001 10.4613 29.1535 10.3122 29.0898 10.1771V10.1553C28.7242 9.30982 28.3002 8.49082 27.8209 7.70426C27.3549 6.96335 26.7337 6.25661 26.6607 5.16622V5.14292C26.6249 4.99227 26.6249 4.83535 26.6607 4.6847V4.6583C26.6631 4.53294 26.6851 4.40874 26.7259 4.29017C26.7554 4.23581 26.7632 4.15348 26.8129 4.11465C26.8736 3.97888 26.9611 3.85669 27.0699 3.75531C27.1787 3.65393 27.3068 3.57541 27.4466 3.52441C27.6671 3.38927 28.001 3.36908 28.3241 3.32714H28.6347C29.3185 3.34769 29.9868 3.53598 30.5808 3.87545C31.7286 4.48278 32.6139 5.38057 33.4044 6.34825C34.2186 7.34177 34.9232 8.4203 35.5059 9.56508V9.58061C35.7092 9.95228 35.8917 10.335 36.0526 10.7269V10.7456C36.0884 10.809 36.1186 10.8756 36.1426 10.9444C36.7033 12.1746 36.8618 13.8102 36.9301 15.539C36.9813 15.5902 36.9301 15.7347 36.9518 15.8232V16.0236C37.0046 16.0857 36.9612 16.2488 36.9751 16.3498V16.7008C37.0008 16.8741 37.0066 17.0497 36.9922 17.2243V18.6688C37.0064 18.9024 37.0007 19.1367 36.9751 19.3693V19.6349C36.9612 19.7452 37.0046 19.9099 36.9518 19.9813V20.1366C36.9379 20.2159 36.9813 20.3541 36.9301 20.3976V20.5296C36.9146 20.5948 36.9612 20.7176 36.9052 20.7502C36.8866 21.5547 36.7772 22.3545 36.5791 23.1344C36.5681 23.2422 36.5387 23.3473 36.4921 23.4451C36.4638 23.6018 36.4201 23.7552 36.3616 23.9033C36.3247 24.0776 36.2662 24.2467 36.1877 24.4066C36.1884 24.4363 36.1815 24.4657 36.1675 24.492C36.1364 24.5681 36.1302 24.6629 36.0759 24.711C35.964 25.0885 35.8196 25.4286 35.6814 25.7843C35.6546 25.8905 35.6192 25.9944 35.5757 26.095C35.5621 26.2005 35.5387 26.3045 35.5059 26.4056V26.6681C35.5136 26.6992 35.5369 26.7101 35.5291 26.7582C35.6254 26.9136 35.7031 27.0689 35.7916 27.2366C37.3013 29.4112 38.6603 31.7613 39.645 34.4826C40.6297 37.204 41.251 40.2453 41.5709 43.6547L39.5518 45.3338C40.6614 44.5324 41.7039 43.6421 42.669 42.6715C44.9931 40.3484 46.8368 37.5901 48.0947 34.5543C49.3526 31.5184 50 28.2644 50 24.9782C50 21.692 49.3526 18.438 48.0947 15.4021C46.8368 12.3662 44.9931 9.60795 42.669 7.28488V7.28643ZM27.6935 25.7129C27.2276 25.6274 26.7771 25.4752 26.4028 25.4271C25.9369 25.3665 25.6263 25.6337 25.1991 25.7377C25.311 25.4663 25.4657 25.2145 25.6573 24.9922C25.8999 24.6967 26.1974 24.4509 26.5333 24.2683C26.6358 24.2279 26.7026 24.1503 26.8362 24.141C26.9158 24.088 27.0079 24.057 27.1033 24.0509C27.2806 23.9962 27.4665 23.9746 27.6516 23.9872C27.6718 23.9499 27.8473 23.9499 27.8706 23.9872C28.776 24.0493 29.4641 24.332 30.4084 24.36H30.8231C31.0219 24.346 31.1788 24.3103 31.3729 24.2932C31.4538 24.2472 31.543 24.2176 31.6354 24.2062C31.6311 24.2899 31.6083 24.3716 31.5686 24.4454C31.5632 24.5226 31.5415 24.5978 31.5049 24.666C31.4729 24.7707 31.4201 24.8679 31.3496 24.9518C31.3073 25.0474 31.249 25.1351 31.1772 25.2112C31.1147 25.2939 31.041 25.3676 30.9582 25.4302C30.5452 25.755 30.0361 25.9336 29.5107 25.9381H29.1566C28.6645 25.8945 28.1758 25.8193 27.6935 25.7129Z" fill="#039BE6"/>
</svg>
